<?xml version="1.0" encoding="UTF-8" standalone="no"?>
<svg
   height="128px"
   viewBox="0 0 128 128"
   width="128px"
   version="1.1"
   id="svg53"
   sodipodi:docname="org.gnome.Connections.svg"
   inkscape:version="1.4 (e7c3feb100, 2024-10-09)"
   xmlns:inkscape="http://www.inkscape.org/namespaces/inkscape"
   xmlns:sodipodi="http://sodipodi.sourceforge.net/DTD/sodipodi-0.dtd"
   xmlns="http://www.w3.org/2000/svg"
   xmlns:svg="http://www.w3.org/2000/svg">
  <defs
     id="defs53" />
  <sodipodi:namedview
     id="namedview53"
     pagecolor="#ffffff"
     bordercolor="#000000"
     borderopacity="0.25"
     inkscape:showpageshadow="2"
     inkscape:pageopacity="0.0"
     inkscape:pagecheckerboard="0"
     inkscape:deskcolor="#d1d1d1"
     inkscape:zoom="6.40625"
     inkscape:cx="61.658537"
     inkscape:cy="65.873171"
     inkscape:window-width="1920"
     inkscape:window-height="1011"
     inkscape:window-x="0"
     inkscape:window-y="0"
     inkscape:window-maximized="1"
     inkscape:current-layer="svg53" />
  <clipPath
     id="a">
    <path
       d="m 4 4 h 120 v 120 h -120 z m 0 0"
       id="path1" />
  </clipPath>
  <clipPath
     id="b">
    <path
       d="m 123.996094 64 c 0 33.132812 -26.863282 59.996094 -59.996094 59.996094 s -59.996094 -26.863282 -59.996094 -59.996094 s 26.863282 -59.996094 59.996094 -59.996094 s 59.996094 26.863282 59.996094 59.996094 z m 0 0"
       id="path2" />
  </clipPath>
  <clipPath
     id="c">
    <path
       d="m 4 4 h 120 v 116 h -120 z m 0 0"
       id="path3" />
  </clipPath>
  <clipPath
     id="d">
    <path
       d="m 123.996094 64 c 0 33.132812 -26.863282 59.996094 -59.996094 59.996094 s -59.996094 -26.863282 -59.996094 -59.996094 s 26.863282 -59.996094 59.996094 -59.996094 s 59.996094 26.863282 59.996094 59.996094 z m 0 0"
       id="path4" />
  </clipPath>
  <clipPath
     id="e">
    <path
       d="m 68 27 h 56 v 71 h -56 z m 0 0"
       id="path5" />
  </clipPath>
  <clipPath
     id="f">
    <path
       d="m 123.996094 64 c 0 33.132812 -26.863282 59.996094 -59.996094 59.996094 s -59.996094 -26.863282 -59.996094 -59.996094 s 26.863282 -59.996094 59.996094 -59.996094 s 59.996094 26.863282 59.996094 59.996094 z m 0 0"
       id="path6" />
  </clipPath>
  <clipPath
     id="g">
    <path
       d="m 62 21 h 12 v 19 h -12 z m 0 0"
       id="path7" />
  </clipPath>
  <clipPath
     id="h">
    <path
       d="m 123.996094 64 c 0 33.132812 -26.863282 59.996094 -59.996094 59.996094 s -59.996094 -26.863282 -59.996094 -59.996094 s 26.863282 -59.996094 59.996094 -59.996094 s 59.996094 26.863282 59.996094 59.996094 z m 0 0"
       id="path8" />
  </clipPath>
  <clipPath
     id="i">
    <path
       d="m 83 12 h 29 v 11 h -29 z m 0 0"
       id="path9" />
  </clipPath>
  <clipPath
     id="j">
    <path
       d="m 123.996094 64 c 0 33.132812 -26.863282 59.996094 -59.996094 59.996094 s -59.996094 -26.863282 -59.996094 -59.996094 s 26.863282 -59.996094 59.996094 -59.996094 s 59.996094 26.863282 59.996094 59.996094 z m 0 0"
       id="path10" />
  </clipPath>
  <clipPath
     id="k">
    <path
       d="m 4 7 h 45 v 112 h -45 z m 0 0"
       id="path11" />
  </clipPath>
  <clipPath
     id="l">
    <path
       d="m 123.996094 64 c 0 33.132812 -26.863282 59.996094 -59.996094 59.996094 s -59.996094 -26.863282 -59.996094 -59.996094 s 26.863282 -59.996094 59.996094 -59.996094 s 59.996094 26.863282 59.996094 59.996094 z m 0 0"
       id="path12" />
  </clipPath>
  <linearGradient
     id="m"
     gradientTransform="matrix(0.192655 0 0 0.25 38.752536 10.999994)"
     gradientUnits="userSpaceOnUse"
     x1="48"
     x2="464"
     y1="44"
     y2="44">
    <stop
       offset="0"
       stop-color="#3d3846"
       id="stop12" />
    <stop
       offset="0.05"
       stop-color="#77767b"
       id="stop13" />
    <stop
       offset="0.1"
       stop-color="#3d3846"
       id="stop14" />
    <stop
       offset="0.899999"
       stop-color="#3d3846"
       id="stop15" />
    <stop
       offset="0.95"
       stop-color="#77767b"
       id="stop16" />
    <stop
       offset="1"
       stop-color="#3d3846"
       id="stop17" />
  </linearGradient>
  <linearGradient
     id="n"
     gradientUnits="userSpaceOnUse"
     x1="-136.212692"
     x2="300.910431"
     y1="979.674214"
     y2="862.547383">
    <stop
       offset="0"
       stop-color="#9141ac"
       id="stop18" />
    <stop
       offset="0.227896"
       stop-color="#33d17a"
       id="stop19"
       style="stop-color:#ffae7c;stop-opacity:1;" />
    <stop
       offset="0.510722"
       stop-color="#f5c211"
       id="stop20" />
    <stop
       offset="0.789213"
       stop-color="#e66100"
       id="stop21" />
    <stop
       offset="1"
       stop-color="#26a269"
       id="stop22"
       style="stop-color:#ffae7c;stop-opacity:1;" />
  </linearGradient>
  <linearGradient
     id="o"
     gradientUnits="userSpaceOnUse"
     x1="85.99996119305"
     x2="109.44605422979"
     y1="25.68808626232"
     y2="24.83250689333">
    <stop
       offset="0"
       stop-color="#787878"
       id="stop23" />
    <stop
       offset="1"
       stop-color="#787878"
       stop-opacity="0"
       id="stop24" />
  </linearGradient>
  <g
     clip-path="url(#a)"
     id="g25"
     style="display:inline">
    <g
       clip-path="url(#b)"
       id="g24">
      <path
         d="M 123.99609,64 C 123.99609,97.132812 97.132812,123.99609 64,123.99609 30.867188,123.99609 4.003906,97.132812 4.003906,64 4.003906,30.867188 30.867188,4.003906 64,4.003906 c 33.132812,0 59.99609,26.863282 59.99609,59.996094 z m 0,0"
         fill="#9a3b00"
         id="path24" />
    </g>
  </g>
  <g
     clip-path="url(#c)"
     id="g27"
     style="display:inline">
    <g
       clip-path="url(#d)"
       id="g26">
      <path
         d="M 123.99609,59.511719 C 123.99609,92.644531 97.132812,119.50391 64,119.50391 30.867188,119.50391 4.003906,92.644531 4.003906,59.511719 4.003906,26.375 30.867188,-0.484375 64,-0.484375 c 33.132812,0 59.99609,26.859375 59.99609,59.996094 z m 0,0"
         fill="#aa4100"
         id="path25"
         style="fill:#e35600;fill-opacity:1" />
    </g>
  </g>
  <g
     clip-path="url(#e)"
     id="g29"
     style="display:inline">
    <g
       clip-path="url(#f)"
       id="g28">
      <path
         d="m 83.730469,34.875 v 3.035156 c 0,3.929688 -3.1875,7.117188 -7.117188,7.117188 -4.726562,0.351562 -8.273437,4.46875 -7.921875,9.199218 v 12.425782 c 0,4.035156 3.273438,7.308594 7.308594,7.308594 3.117188,0.917968 4.90625,4.1875 3.988281,7.308593 v 8.71875 C 79.988281,94.414062 83.574219,98 88,98 c 4.421875,-0.0039 8.003906,-3.589844 8,-8.011719 V 76.484375 c 0,-3.242187 1.289062,-6.351563 3.585938,-8.640625 2.292972,-2.289062 5.406252,-3.570312 8.648442,-3.566406 l 11.3125,0.02734 c 1.88671,0.0039 3.69921,-0.742188 5.03515,-2.074219 1.33203,-1.332031 2.08203,-3.140625 2.08203,-5.027344 V 34.875 c 0,-3.929688 -3.18359,-7.117188 -7.11718,-7.117188 H 90.847656 c -3.929687,0 -7.117187,3.1875 -7.117187,7.117188 z m 0,0"
         fill="#26a269"
         id="path27"
         style="fill:#ffae7c;fill-opacity:1" />
    </g>
  </g>
  <g
     clip-path="url(#g)"
     id="g31"
     style="display:inline">
    <g
       clip-path="url(#h)"
       id="g30">
      <path
         d="m 67.886719,21.046875 c 3.210937,0 5.808593,2.601563 5.808593,5.808594 v 6.378906 c 0,3.207031 -2.597656,5.808594 -5.808593,5.808594 -3.207031,0 -5.808594,-2.601563 -5.808594,-5.808594 v -6.378906 c 0,-3.207031 2.601563,-5.808594 5.808594,-5.808594 z m 0,0"
         fill="#26a269"
         id="path29" />
    </g>
  </g>
  <g
     clip-path="url(#i)"
     id="g33"
     style="display:inline">
    <g
       clip-path="url(#j)"
       id="g32">
      <path
         d="m 88.484375,12.285156 h 17.929685 c 2.90235,0 5.25391,2.351563 5.25391,5.253906 0,2.902344 -2.35156,5.253907 -5.25391,5.253907 H 88.484375 c -2.898437,0 -5.253906,-2.351563 -5.253906,-5.253907 0,-2.902343 2.355469,-5.253906 5.253906,-5.253906 z m 0,0"
         fill="#26a269"
         id="path31" />
    </g>
  </g>
  <g
     clip-path="url(#k)"
     id="g35"
     style="display:inline">
    <g
       clip-path="url(#l)"
       id="g34">
      <path
         d="m 28.261719,16.25 h -8 v 8 c -2.207031,-4.417969 -7.582031,-6.207031 -12,-4 -4.417969,2.210938 -6.207031,7.582031 -4,12 v 14 c 0,4.421875 -3.582031,8 -8,8 -4.417969,0 -8,3.582031 -8,8 v 16 c 0,4.421875 3.582031,8 8,8 4.417969,0 8,3.582031 8,8 v 16 c 0,4.42188 3.582031,8 8,8 h 4 c 4.417969,0 8,-3.57812 8,-8 v -30 c 0,-4.417969 -3.582031,-8 -8,-8 -4.417969,0 -8,-3.578125 -8,-8 0,-4.417969 3.582031,-8 8,-8 4.417969,0 8,-3.578125 8,-8 0,-4.417969 3.582031,-8 8,-8 4.417969,0 8,-3.578125 8,-8 V 20.367188 c 0,-2.273438 1.84375,-4.117188 4.117187,-4.117188 2.28125,-0.136719 4.019532,-2.097656 3.882813,-4.378906 -1.210938,-3.210938 -4.792969,-4.828125 -8,-3.621094 h -4 c -4.417969,0 -8,3.582031 -8,8 z m 0,0"
         fill="#26a269"
         id="path33"
         style="fill:#ffae7c;fill-opacity:1" />
    </g>
  </g>
  <path
     d="m 56 29.871094 h 64.144531 c 4.417969 0 8 3.582031 8 8 v 28.128906 c 0 4.417969 -3.582031 8 -8 8 h -64.144531 c -4.417969 0 -8 -3.582031 -8 -8 v -28.128906 c 0 -4.417969 3.582031 -8 8 -8 z m 0 0"
     fill="url(#m)"
     id="path35" />
  <path
     d="m 68.144531 14.179688 h 52 c 4.417969 0 8 3.582031 8 8 v 35.820312 c 0 4.417969 -3.582031 8 -8 8 h -52 c -4.417969 0 -8 -3.582031 -8 -8 v -35.820312 c 0 -4.417969 3.582031 -8 8 -8 z m 0 0"
     fill="#3d3846"
     id="path36" />
  <path
     d="m 56 0 h 64.144531 c 4.417969 0 8 3.582031 8 8 v 50 c 0 4.417969 -3.582031 8 -8 8 h -64.144531 c -4.417969 0 -8 -3.582031 -8 -8 v -50 c 0 -4.417969 3.582031 -8 8 -8 z m 0 0"
     fill="#241f31"
     id="path37" />
  <path
     d="m 246.99454,786.2524 v 99.83511 c 0,32.58142 -26.42404,59.00545 -59.00545,59.00545 H 43.290728 c -37.240605,0 -67.434801,-30.19419 -67.434801,-67.4348 -6.81592,-30.42468 -37.010116,-49.55536 -67.434802,-42.73944 h -49.176695"
     fill="none"
     stroke="url(#n)"
     stroke-width="33.7174"
     transform="matrix(0.237266,0,0,0.237266,49.396542,-116.23863)"
     id="path38"
     style="display:inline" />
  <g
     fill="#ffffff"
     id="g47"
     style="display:inline">
    <path
       d="m 72,108 c 0,2.21094 -1.789062,4 -4,4 -2.210938,0 -4,-1.78906 -4,-4 0,-2.21094 1.789062,-4 4,-4 2.210938,0 4,1.78906 4,4 z m 0,0"
       id="path39" />
    <path
       d="m 88,108 c 0,2.21094 -1.789062,4 -4,4 -2.210938,0 -4,-1.78906 -4,-4 0,-2.21094 1.789062,-4 4,-4 2.210938,0 4,1.78906 4,4 z m 0,0"
       id="path40" />
    <path
       d="m 104,106 c 0,2.21094 -1.78906,4 -4,4 -2.210938,0 -4,-1.78906 -4,-4 0,-2.21094 1.789062,-4 4,-4 2.21094,0 4,1.78906 4,4 z m 0,0"
       id="path41" />
    <path
       d="m 112,94 c 0,2.210938 -1.78906,4 -4,4 -2.21094,0 -4,-1.789062 -4,-4 0,-2.210938 1.78906,-4 4,-4 2.21094,0 4,1.789062 4,4 z m 0,0"
       id="path42" />
    <path
       d="m 112,80 c 0,2.210938 -1.78906,4 -4,4 -2.21094,0 -4,-1.789062 -4,-4 0,-2.210938 1.78906,-4 4,-4 2.21094,0 4,1.789062 4,4 z m 0,0"
       id="path43" />
    <path
       d="m 56,106 c 0,2.21094 -1.789062,4 -4,4 -2.210938,0 -4,-1.78906 -4,-4 0,-2.21094 1.789062,-4 4,-4 2.210938,0 4,1.78906 4,4 z m 0,0"
       id="path44" />
    <path
       d="m 48,94 c 0,2.210938 -1.789062,4 -4,4 -2.210938,0 -4,-1.789062 -4,-4 0,-2.210938 1.789062,-4 4,-4 2.210938,0 4,1.789062 4,4 z m 0,0"
       id="path45" />
    <path
       d="m 40,82 c 0,2.210938 -1.789062,4 -4,4 -2.210938,0 -4,-1.789062 -4,-4 0,-2.210938 1.789062,-4 4,-4 2.210938,0 4,1.789062 4,4 z m 0,0"
       id="path46" />
    <path
       d="m 27.984375,82 c 0,4.410156 -3.574219,7.984375 -7.984375,7.984375 -4.410156,0 -7.984375,-3.574219 -7.984375,-7.984375 0,-4.410156 3.574219,-7.988281 7.984375,-7.988281 4.410156,0 7.984375,3.578125 7.984375,7.988281 z m 0,0"
       id="path47" />
  </g>
  <path
     d="M 72.074219,18.089844 83.707031,53 l 7.589844,-6.503906 4.933594,5.921875 c 1.285156,1.542969 3.582031,1.753906 5.125001,0.464843 1.53906,-1.285156 1.75,-3.574218 0.46484,-5.117187 l -4.999998,-6 7.253908,-6.21875 z m 0,0"
     id="path48"
     style="display:inline" />
  <path
     d="m 72.074219,15.183594 11.632812,34.90625 7.589844,-6.5 4.933594,5.917968 c 1.285156,1.542969 3.582031,1.753907 5.125001,0.46875 1.53906,-1.289062 1.75,-3.578124 0.46484,-5.121093 l -4.999998,-6 7.253908,-6.21875 z m 0,0"
     fill="#787878"
     id="path49"
     style="display:inline" />
  <path
     d="M 72.074219,15.179688 74,20.964844 V 16.230469 Z M 74.347656,22 l 9.363282,28.09375 7.585937,-6.503906 4.933594,5.921875 c 1.285156,1.542969 3.582031,1.75 5.125001,0.464843 1.53906,-1.285156 1.75,-3.578124 0.46484,-5.121093 l -4.999998,-6 L 102.48438,34 H 98 V 29.324219 L 95.574219,28 H 86 V 22.777344 L 84.574219,22 Z M 104,32.597656 v 0.101563 l 0.0742,-0.0625 z m 0,0"
     fill="#ffffff"
     id="path50"
     style="display:inline" />
  <path
     d="m 72.074219,15.183594 11.632812,34.90625 7.589844,-6.5 4.933594,5.917968 c 1.285156,1.542969 3.582031,1.753907 5.125001,0.46875 0.12109,-0.105468 0.23828,-0.21875 0.34375,-0.339843 z m 0,0"
     fill="#deddda"
     id="path51"
     style="display:inline" />
  <path
     d="m 92,28 h 6 v 6 h -6 z m 0,0"
     fill="#ffffff"
     id="path52"
     style="display:inline" />
  <path
     d="m 98,22 h 6 v 6 H 98 Z M 86,16 h 6 v 6 h -6 z m 0,0"
     fill="url(#o)"
     id="path53"
     style="display:inline" />
</svg>
